<svg width="127" height="33" viewBox="0 0 127 33" fill="none" xmlns="http://www.w3.org/2000/svg">
<path d="M124.299 19.531C124.223 19.4232 124.063 19.3308 123.882 19.3308C123.68 19.3308 123.555 19.4202 123.555 19.5573C123.555 19.9282 124.494 19.7599 124.494 20.3591C124.494 20.6565 124.252 20.8567 123.877 20.8567C123.562 20.8567 123.358 20.733 123.242 20.5696L123.413 20.4093C123.526 20.5568 123.688 20.6327 123.88 20.6327C124.11 20.6327 124.242 20.5329 124.242 20.375C124.242 19.9649 123.303 20.1461 123.303 19.5652C123.303 19.2941 123.541 19.1074 123.89 19.1074C124.153 19.1074 124.365 19.2231 124.467 19.3682L124.299 19.531ZM125.621 20.4937L126.245 19.5175V20.8248H126.481V19.1392H126.24L125.636 20.1045L125.03 19.1392H124.757V20.8248H124.993V19.5175L125.621 20.4937Z" fill="#5009B5"/>
<path d="M52.5619 29.2181H55.109V32.1647C54.3942 32.6996 53.6693 32.9215 52.6122 32.9215C50.5887 32.9215 49.2598 31.4381 49.2598 29.5612C49.2598 27.654 50.8102 26.1907 52.6223 26.1907C53.7197 26.1907 54.4747 26.5238 55.0084 27.0687L54.203 27.997C53.8204 27.654 53.2768 27.4016 52.6324 27.4016C51.5451 27.4016 50.6088 28.3099 50.6088 29.5612C50.6088 30.7721 51.4546 31.7509 52.7633 31.7509C53.2163 31.7509 53.5888 31.6602 53.9109 31.4886V30.3181H52.5619V29.2181ZM58.068 32.8004C57.8868 32.861 57.6553 32.9014 57.4741 32.9014C56.7794 32.9014 56.0747 32.4574 56.0747 31.2262V25.8477H57.303V31.2565C57.303 31.6299 57.5144 31.7712 57.7358 31.7712C57.7963 31.7712 57.8768 31.7509 57.9372 31.7207L58.068 32.8004ZM60.8865 27.8255C62.2859 27.8255 63.3934 28.9658 63.3934 30.3685C63.3934 31.7812 62.2859 32.9215 60.8865 32.9215C59.4872 32.9215 58.3797 31.7812 58.3797 30.3685C58.3797 28.9658 59.4872 27.8255 60.8865 27.8255ZM60.8865 28.976C60.1416 28.976 59.608 29.5915 59.608 30.3685C59.608 31.1455 60.1416 31.7712 60.8865 31.7712C61.6316 31.7712 62.1651 31.1455 62.1651 30.3685C62.1651 29.5915 61.6316 28.976 60.8865 28.976ZM69.2722 30.3786C69.2722 31.8317 68.2956 32.9215 66.9566 32.9215C66.3022 32.9215 65.7989 32.6289 65.4767 32.1445V32.7904H64.2484V25.8477H65.4767V28.6429C65.7989 28.1484 66.3022 27.8255 66.9566 27.8255C68.2251 27.8255 69.2722 28.8649 69.2722 30.3786ZM68.0439 30.3786C68.0439 29.6016 67.5003 28.976 66.7654 28.976C66.0203 28.976 65.4767 29.6016 65.4767 30.3786C65.4767 31.1556 66.0203 31.7712 66.7654 31.7712C67.5003 31.7712 68.0439 31.1556 68.0439 30.3786ZM73.7918 27.9567H75.0201V32.7904H73.7918V32.1042C73.4696 32.5986 72.9663 32.9215 72.3119 32.9215C71.0433 32.9215 70.0064 31.8822 70.0064 30.3685C70.0064 28.9154 70.9829 27.8255 72.3119 27.8255C72.9663 27.8255 73.4696 28.1181 73.7918 28.5924V27.9567ZM73.7918 30.3685C73.7918 29.5915 73.2582 28.976 72.5132 28.976C71.7682 28.976 71.2347 29.5915 71.2347 30.3685C71.2347 31.1455 71.7682 31.7712 72.5132 31.7712C73.2582 31.7712 73.7918 31.1455 73.7918 30.3685ZM78.1806 32.8004C77.9994 32.861 77.7678 32.9014 77.5866 32.9014C76.892 32.9014 76.1872 32.4574 76.1872 31.2262V25.8477H77.4154V31.2565C77.4154 31.6299 77.6269 31.7712 77.8483 31.7712C77.9088 31.7712 77.9893 31.7509 78.0497 31.7207L78.1806 32.8004ZM81.5322 31.1455C82.0759 31.4886 82.8611 31.7308 83.4954 31.7308C84.1297 31.7308 84.6028 31.4987 84.6028 30.984C84.6028 29.8337 81.21 30.3786 81.21 28.0879C81.21 26.8871 82.3075 26.1806 83.6162 26.1806C84.4316 26.1806 85.1968 26.4027 85.7908 26.8568L85.1767 27.8558C84.7638 27.5833 84.1195 27.3614 83.5557 27.3614C82.9719 27.3614 82.5591 27.6338 82.5591 28.0576C82.5591 29.2383 85.9418 28.7135 85.9418 30.9135C85.9418 32.2454 84.774 32.9215 83.4048 32.9215C82.5994 32.9215 81.7235 32.6793 80.9886 32.2051L81.5322 31.1455ZM89.1528 27.8255C90.5521 27.8255 91.6596 28.9658 91.6596 30.3685C91.6596 31.7812 90.5521 32.9215 89.1528 32.9215C87.7534 32.9215 86.6459 31.7812 86.6459 30.3685C86.6459 28.9658 87.7534 27.8255 89.1528 27.8255ZM89.1528 28.976C88.4077 28.976 87.8742 29.5915 87.8742 30.3685C87.8742 31.1455 88.4077 31.7712 89.1528 31.7712C89.8977 31.7712 90.4313 31.1455 90.4313 30.3685C90.4313 29.5915 89.8977 28.976 89.1528 28.976ZM94.4074 32.8004C94.2261 32.861 93.9946 32.9014 93.8134 32.9014C93.1188 32.9014 92.414 32.4574 92.414 31.2262V25.8477H93.6422V31.2565C93.6422 31.6299 93.8537 31.7712 94.0751 31.7712C94.1356 31.7712 94.2161 31.7509 94.2765 31.7207L94.4074 32.8004ZM96.199 30.5703C96.199 31.2766 96.6017 31.7509 97.2158 31.7509C97.8299 31.7509 98.2427 31.2766 98.2427 30.5703V27.9567H99.4811V30.6611C99.4811 32.0134 98.5749 32.9115 97.2158 32.9115C95.8567 32.9115 94.9708 32.0134 94.9708 30.6611V27.9567H96.199V30.5703ZM100.286 27.9567H101.131V26.7054H102.37V27.9567H103.668V29.0465H102.38V31.1051C102.38 31.5593 102.561 31.7712 102.923 31.7712C103.155 31.7712 103.376 31.6702 103.497 31.529L104.041 32.4473C103.779 32.7096 103.326 32.9215 102.732 32.9215C101.756 32.9215 101.131 32.316 101.131 31.1354V29.0465H100.286V27.9567ZM104.755 26.5843C104.755 26.1907 105.067 25.8678 105.47 25.8678C105.863 25.8678 106.195 26.1907 106.195 26.5843C106.195 26.9879 105.863 27.3108 105.47 27.3108C105.067 27.3108 104.755 26.9879 104.755 26.5843ZM104.856 32.7904V27.9567H106.084V30.0618V32.7903L104.856 32.7904ZM109.457 27.8255C110.856 27.8255 111.963 28.9658 111.963 30.3685C111.963 31.7812 110.856 32.9215 109.457 32.9215C108.057 32.9215 106.95 31.7812 106.95 30.3685C106.95 28.9658 108.057 27.8255 109.457 27.8255ZM109.457 28.976C108.711 28.976 108.178 29.5915 108.178 30.3685C108.178 31.1455 108.711 31.7712 109.457 31.7712C110.201 31.7712 110.735 31.1455 110.735 30.3685C110.735 29.5915 110.201 28.976 109.457 28.976ZM117.238 29.864V32.7904H116.01V30.0456C116.01 29.3897 115.637 28.976 115.033 28.976C114.429 28.976 114.047 29.3897 114.047 30.0456V32.7904H112.818V27.9567H114.047V28.6429C114.298 28.1282 114.781 27.8255 115.416 27.8255C116.523 27.8255 117.238 28.6025 117.238 29.864ZM118.164 32.4574L118.556 31.5088C119.11 31.7712 119.573 31.9124 120.107 31.9124C120.65 31.9124 120.902 31.7207 120.902 31.4381C120.902 30.5703 118.304 31.085 118.304 29.2584C118.304 28.5318 118.949 27.8255 120.187 27.8255C120.862 27.8255 121.375 27.9667 121.989 28.2595L121.536 29.1777C121.194 28.986 120.68 28.8346 120.288 28.8346C119.825 28.8346 119.543 28.986 119.543 29.2483C119.543 30.1364 122.12 29.5813 122.12 31.418C122.12 32.2556 121.375 32.9215 120.046 32.9215C119.271 32.9215 118.637 32.7197 118.164 32.4574Z" fill="#5009B5"/>
<path d="M39.5477 9.56773C37.171 9.56773 35.5667 11.3841 35.5667 13.6769C35.5667 15.9698 37.2007 17.8159 39.5179 17.8159C40.9736 17.8159 42.1321 17.3097 43.0233 16.4164L44.8655 19.0966C43.7364 20.3471 41.6865 21.2404 39.4288 21.2404C35.2102 21.2404 31.9424 17.8457 31.9424 13.7067C31.9424 9.53794 35.2102 6.14326 39.3693 6.14326C41.8054 6.14326 43.7364 6.97696 44.9841 8.28711L42.9047 10.8779C42.0135 10.0144 40.9439 9.56773 39.5477 9.56773ZM56.3189 19.2753C55.2791 20.4964 53.8233 21.2408 51.9813 21.2408C48.2082 21.2408 45.148 18.1439 45.148 13.7067C45.148 9.38876 48.0299 6.14289 51.9813 6.14289C53.853 6.14289 55.3088 6.82766 56.3189 7.98916V6.55977H59.9731V20.8239H56.3189V19.2753ZM56.3189 13.6769C56.3189 11.384 54.7443 9.56753 52.5756 9.56753C50.3769 9.56753 48.7728 11.384 48.7728 13.6769C48.7728 15.9699 50.3769 17.8161 52.5756 17.8161C54.7443 17.8161 56.3189 15.9699 56.3189 13.6769ZM66.2108 20.8239H62.5861V6.55977H66.2108V8.10834C67.0129 6.91705 68.2014 6.14289 69.6869 6.14289C70.6376 6.14289 71.41 6.41079 71.9745 6.85746L70.4593 10.3119C69.9839 9.92481 69.2708 9.68645 68.5876 9.68645C67.1318 9.68645 66.2108 10.9075 66.2108 12.8432V20.8239ZM71.4686 13.7067C71.4686 9.53774 74.5583 6.14289 78.6581 6.14289C82.7285 6.14289 85.8181 9.29937 85.8181 13.409C85.8181 13.8557 85.7884 14.362 85.7292 14.6001H75.1823C75.5387 16.5953 77.054 18.0247 79.2524 18.0247C80.6784 18.0247 81.8967 17.3993 82.7285 16.5357L84.6001 19.0074C83.5305 20.258 81.5102 21.2408 79.1037 21.2408C74.6772 21.2408 71.4686 17.8459 71.4686 13.7067ZM75.2417 12.3071H82.1045C81.6886 10.2821 80.4111 9.23978 78.7176 9.23978C76.9053 9.23978 75.6576 10.4907 75.2417 12.3071ZM87.3028 0.335938H90.9275V20.8239H87.3028V11.1455V0.335938ZM92.5909 13.7067C92.5909 9.53774 95.8589 6.14289 99.9884 6.14289C104.118 6.14289 107.416 9.53774 107.416 13.7067C107.416 17.8459 104.118 21.2408 99.9884 21.2408C95.8589 21.2408 92.5909 17.8459 92.5909 13.7067ZM103.762 13.6769C103.762 11.384 102.187 9.56753 100.018 9.56753C97.8195 9.56753 96.2153 11.384 96.2153 13.6769C96.2153 15.9699 97.8195 17.8161 100.018 17.8161C102.187 17.8161 103.762 15.9699 103.762 13.6769ZM112.703 20.8239H109.079V6.55977H112.703V7.95936C113.594 6.79787 114.961 6.14289 116.714 6.14289C120.011 6.14289 122.121 8.46562 122.121 12.188V20.8239H118.496V12.724C118.496 10.7884 117.367 9.56753 115.615 9.56753C113.802 9.56753 112.703 10.7884 112.703 12.724V20.8239Z" fill="#5009B5"/>
<path d="M6.59228 0C2.95146 0 0 2.95838 0 6.60771C0 10.2571 2.95146 13.2131 6.59228 13.2131C6.93776 13.2131 7.35522 13.1829 7.68475 13.1259L7.91913 13.6913L6.59833 16.9056C7.03508 16.9062 7.47915 16.9817 7.91327 17.14C8.22127 17.2524 8.50632 17.4 8.7656 17.5766L10.3617 13.6913L8.7748 9.80195C7.78197 10.4823 6.48765 10.6893 5.27131 10.2455C3.26688 9.5143 2.23339 7.29278 2.96294 5.28365C3.6925 3.27454 5.90884 2.23863 7.91326 2.96989C9.48357 3.54277 10.4579 5.03029 10.4555 6.61379L13.0928 7.70253C13.1521 7.34626 13.1846 6.98086 13.1846 6.60771C13.1846 2.95838 10.2331 0 6.59228 0Z" fill="#5009B5"/>
<path d="M20.7305 0C17.0897 0 14.1382 2.95838 14.1382 6.60771C14.1382 6.954 14.1704 7.37212 14.2276 7.70273L13.6615 7.93742L10.4553 6.61385C10.4546 7.05159 10.3794 7.49668 10.2214 7.93179C10.1093 8.24034 9.96215 8.5259 9.78613 8.78567L13.6615 10.3857L17.5437 8.79532C16.865 7.80017 16.6584 6.50283 17.1011 5.28365C17.8307 3.27453 20.047 2.23862 22.0514 2.96988C24.0559 3.70113 25.0894 5.92265 24.3598 7.93176C23.7883 9.50575 22.3042 10.4824 20.7244 10.48L19.6376 13.1235C19.993 13.1829 20.3582 13.2154 20.7305 13.2154C24.3713 13.2154 27.3228 10.257 27.3228 6.60771C27.3228 2.95838 24.3713 0 20.7305 0Z" fill="#44B8F3"/>
<path d="M13.6617 17.0003L9.77908 18.5908C10.4578 19.5859 10.6643 20.8833 10.2216 22.1025C9.49209 24.1116 7.27576 25.1475 5.27132 24.4162C3.26689 23.685 2.23339 21.4635 2.96295 19.4543C3.5345 17.8804 5.01855 16.9037 6.59835 16.9061L7.68454 14.2626C7.3291 14.2032 6.96458 14.1699 6.59228 14.1699C2.95147 14.1699 0 17.1291 0 20.7784C0 24.4277 2.95147 27.3861 6.59228 27.3861C10.2331 27.3861 13.1846 24.4277 13.1846 20.7784C13.1846 20.4321 13.1552 20.0334 13.0941 19.6834L13.6617 19.4487L16.8675 20.7724C16.8681 20.3346 16.9434 19.8895 17.1014 19.4543C17.2134 19.1458 17.3606 18.8602 17.5366 18.6004L13.6617 17.0003Z" fill="#794CFF"/>
<path d="M20.731 14.169C20.3855 14.169 19.972 14.2014 19.6381 14.2594L19.4044 13.6915L20.7248 10.4796C20.2881 10.4789 19.8441 10.4035 19.41 10.2451C19.102 10.1328 18.817 9.98517 18.5577 9.80859L16.9617 13.6915L18.5485 17.5832C19.5413 16.9029 20.8356 16.6959 22.052 17.1396C24.0564 17.8709 25.0899 20.0924 24.3603 22.1015C23.6308 24.1106 21.4144 25.1465 19.41 24.4153C17.8397 23.8424 16.8654 22.3549 16.8677 20.7714L14.2304 19.6826C14.1711 20.0389 14.1387 20.4043 14.1387 20.7775C14.1387 24.4268 17.0902 27.3852 20.731 27.3852C24.3718 27.3852 27.3233 24.4268 27.3233 20.7775C27.3233 17.1281 24.3718 14.169 20.731 14.169Z" fill="#00BBBA"/>
</svg>
